# xmcd
#
# Track frame offsets: 
#        150
#        22237
#        42725
#        59444
#        73454
#        90259
#        106541
#        123194
#        139082
#        153348
#
# Disc length: 2283 seconds
#
# Revision: 0
# Processed by: cddbd v1.5.2PL0 Copyright (c) Steve Scherf et al.
# Submitted via: ExactAudioCopy v0.99pb4
#
DISCID=8808e90a
DTITLE=The Suicide Kings - Rule the Apocalypse
DYEAR=2009
DGENRE=Punk
TTITLE0=Unity remains
TTITLE1=South of Hessen
TTITLE2=Holy Damnation
TTITLE3=Surrounded by evil
TTITLE4=Rule the apocalypse
TTITLE5=Evil sanctuary
TTITLE6=Feel the force
TTITLE7=Dark Empire
TTITLE8=Forgotten soldiers
TTITLE9=Flood of blood
EXTD=
EXTT0=
EXTT1=
EXTT2=
EXTT3=
EXTT4=
EXTT5=
EXTT6=
EXTT7=
EXTT8=
EXTT9=
PLAYORDER=
